<svg id="bitmap_label" data-name="bitmap label" xmlns="http://www.w3.org/2000/svg" viewBox="0 0 320 115">
  <title>viasat4</title>
  <g>
    <path d="M217,49.84H205.77A46.41,46.41,0,0,0,160,11.1a47,47,0,0,0-5.37.31L162.19,0Q161.1,0,160,0a57.45,57.45,0,1,0,57,49.84" style="fill: #1f60a9"/>
    <path d="M170.23,102.77a46.47,46.47,0,0,0,35.55-52.93H177.52v9H148.64L182.73,8.27a54,54,0,0,0-22.73-5L118.52,65.78a42.12,42.12,0,0,0,8.66,18.39h50.34c0,7.36-7.3,18.6-7.3,18.6" style="fill: #fff"/>
  </g>
</svg>
